<svg width="24" height="24" viewBox="0 0 24 24" fill="none" xmlns="http://www.w3.org/2000/svg">
<path d="M20.7705 11.4136L16.631 8.05677V5.77052C16.653 5.31231 16.4939 4.86399 16.1886 4.52385C15.8832 4.18372 15.4566 3.97952 15.0021 3.95604H4.74332C4.29208 3.98413 3.86999 4.19032 3.56848 4.52995C3.26698 4.86957 3.11034 5.31528 3.1325 5.77052V14.8429C3.12415 15.2032 3.22239 15.5578 3.41472 15.8616C3.60704 16.1653 3.88472 16.4045 4.21238 16.5485C4.04665 16.9573 3.98206 17.4005 4.02418 17.8401C4.0663 18.2796 4.21387 18.7022 4.45415 19.0714C4.69444 19.4406 5.02022 19.7454 5.40339 19.9593C5.78656 20.1732 6.21561 20.29 6.65352 20.2994C7.09143 20.3089 7.52504 20.2108 7.91695 20.0136C8.30886 19.8164 8.64729 19.526 8.90304 19.1675C9.15879 18.8091 9.32419 18.3932 9.38495 17.9559C9.4457 17.5186 9.40001 17.0729 9.2518 16.6574H14.9751C14.8271 17.0685 14.7796 17.5095 14.8365 17.9431C14.8934 18.3766 15.0531 18.79 15.3021 19.1481C15.5511 19.5062 15.882 19.7986 16.2668 20.0005C16.6516 20.2023 17.0791 20.3077 17.5128 20.3077C17.9466 20.3077 18.3741 20.2023 18.7589 20.0005C19.1437 19.7986 19.4746 19.5062 19.7236 19.1481C19.9726 18.79 20.1323 18.3766 20.1892 17.9431C20.2461 17.5095 20.1986 17.0685 20.0506 16.6574H20.2305C20.4692 16.6574 20.6981 16.5618 20.8669 16.3917C21.0356 16.2215 21.1304 15.9908 21.1304 15.7502V12.1212C21.1277 11.9834 21.0938 11.8481 21.0315 11.7255C20.9691 11.6029 20.8798 11.4962 20.7705 11.4136ZM19.3306 12.5567V14.8429H16.631V10.3793L19.3306 12.5567ZM7.63198 17.5646C7.63198 17.7441 7.57921 17.9195 7.48032 18.0687C7.38144 18.2179 7.2409 18.3341 7.07646 18.4028C6.91203 18.4715 6.73109 18.4894 6.55653 18.4544C6.38196 18.4194 6.22162 18.333 6.09576 18.2062C5.96991 18.0793 5.8842 17.9176 5.84948 17.7416C5.81476 17.5656 5.83258 17.3832 5.90069 17.2174C5.9688 17.0517 6.08414 16.91 6.23213 16.8103C6.38012 16.7106 6.5541 16.6574 6.73209 16.6574C6.97075 16.6574 7.19965 16.753 7.36841 16.9231C7.53717 17.0933 7.63198 17.324 7.63198 17.5646ZM12.1315 14.8429H4.93229V5.77052H14.8312V14.8429H12.1315ZM18.4307 17.5646C18.4307 17.7441 18.378 17.9195 18.2791 18.0687C18.1802 18.2179 18.0397 18.3341 17.8752 18.4028C17.7108 18.4715 17.5298 18.4894 17.3553 18.4544C17.1807 18.4194 17.0204 18.333 16.8945 18.2062C16.7687 18.0793 16.683 17.9176 16.6482 17.7416C16.6135 17.5656 16.6313 17.3832 16.6995 17.2174C16.7676 17.0517 16.8829 16.91 17.0309 16.8103C17.1789 16.7106 17.3529 16.6574 17.5308 16.6574C17.7695 16.6574 17.9984 16.753 18.1672 16.9231C18.3359 17.0933 18.4307 17.324 18.4307 17.5646Z" fill="#202020"/>
</svg>
