<svg width="25" height="24" viewBox="0 0 25 24" fill="none" xmlns="http://www.w3.org/2000/svg">
<path d="M15.1999 21.3333H14.5332C14.5332 21.4571 14.5677 21.5785 14.6328 21.6838C14.6979 21.7891 14.791 21.8743 14.9017 21.9296C15.0125 21.985 15.1364 22.0084 15.2597 21.9973C15.3831 21.9862 15.5008 21.941 15.5999 21.8667L15.1999 21.3333ZM17.8665 19.3333L18.2665 18.8C18.1511 18.7135 18.0108 18.6667 17.8665 18.6667C17.7223 18.6667 17.5819 18.7135 17.4665 18.8L17.8665 19.3333ZM20.5332 21.3333L20.1332 21.8667C20.2323 21.941 20.35 21.9862 20.4733 21.9973C20.5966 22.0084 20.7206 21.985 20.8314 21.9296C20.9421 21.8743 21.0352 21.7891 21.1003 21.6838C21.1654 21.5785 21.1999 21.4571 21.1999 21.3333H20.5332ZM17.8665 16.6667C16.9825 16.6667 16.1346 16.3155 15.5095 15.6904C14.8844 15.0652 14.5332 14.2174 14.5332 13.3333H13.1999C13.1999 14.571 13.6915 15.758 14.5667 16.6332C15.4419 17.5083 16.6289 18 17.8665 18V16.6667ZM21.1999 13.3333C21.1999 14.2174 20.8487 15.0652 20.2236 15.6904C19.5984 16.3155 18.7506 16.6667 17.8665 16.6667V18C19.1042 18 20.2912 17.5083 21.1664 16.6332C22.0415 15.758 22.5332 14.571 22.5332 13.3333H21.1999ZM17.8665 10C18.7506 10 19.5984 10.3512 20.2236 10.9763C20.8487 11.6014 21.1999 12.4493 21.1999 13.3333H22.5332C22.5332 12.0957 22.0415 10.9087 21.1664 10.0335C20.2912 9.15833 19.1042 8.66667 17.8665 8.66667V10ZM17.8665 8.66667C16.6289 8.66667 15.4419 9.15833 14.5667 10.0335C13.6915 10.9087 13.1999 12.0957 13.1999 13.3333H14.5332C14.5332 12.4493 14.8844 11.6014 15.5095 10.9763C16.1346 10.3512 16.9825 10 17.8665 10V8.66667ZM14.5332 16V21.3333H15.8665V16H14.5332ZM15.5999 21.8667L18.2665 19.8667L17.4665 18.8L14.7999 20.8L15.5999 21.8667ZM17.4665 19.8667L20.1332 21.8667L20.9332 20.8L18.2665 18.8L17.4665 19.8667ZM21.1999 21.3333V16H19.8665V21.3333H21.1999ZM22.5332 8.66667V4H21.1999V8.66667H22.5332ZM20.5332 2H4.5332V3.33333H20.5332V2ZM2.5332 4V20H3.86654V4H2.5332ZM4.5332 22H13.1999V20.6667H4.5332V22ZM2.5332 20C2.5332 20.5304 2.74392 21.0391 3.11899 21.4142C3.49406 21.7893 4.00277 22 4.5332 22V20.6667C4.35639 20.6667 4.18682 20.5964 4.0618 20.4714C3.93677 20.3464 3.86654 20.1768 3.86654 20H2.5332ZM4.5332 2C4.00277 2 3.49406 2.21071 3.11899 2.58579C2.74392 2.96086 2.5332 3.46957 2.5332 4H3.86654C3.86654 3.82319 3.93677 3.65362 4.0618 3.5286C4.18682 3.40357 4.35639 3.33333 4.5332 3.33333V2ZM22.5332 4C22.5332 3.46957 22.3225 2.96086 21.9474 2.58579C21.5724 2.21071 21.0636 2 20.5332 2V3.33333C20.71 3.33333 20.8796 3.40357 21.0046 3.5286C21.1296 3.65362 21.1999 3.82319 21.1999 4H22.5332ZM6.5332 8.66667H13.1999V7.33333H6.5332V8.66667ZM6.5332 12.6667H10.5332V11.3333H6.5332V12.6667Z" fill="#202020"/>
</svg>
