<svg width="25" height="24" viewBox="0 0 25 24" fill="none" xmlns="http://www.w3.org/2000/svg">
<path fill-rule="evenodd" clip-rule="evenodd" d="M4.48311 3.94116C4.9876 3.44409 5.67184 3.16483 6.3853 3.16483H15.3523C16.0658 3.16483 16.75 3.44409 17.2545 3.94116C17.759 4.43823 18.0424 5.11241 18.0424 5.81538V6.69889H18.9391C19.6526 6.69889 20.3368 6.97815 20.8413 7.47522C21.3458 7.97229 21.6293 8.64647 21.6293 9.34944V14.6505C21.6293 15.3535 21.3458 16.0277 20.8413 16.5247C20.3368 17.0218 19.6526 17.3011 18.9391 17.3011H18.0424V19.9516C18.0424 20.309 17.824 20.6311 17.4889 20.7679C17.1538 20.9046 16.7681 20.829 16.5117 20.5764L13.1875 17.3011H8.17871C7.68347 17.3011 7.282 16.9055 7.282 16.4176V13.767H6.3853C5.67184 13.767 4.9876 13.4878 4.48311 12.9907C3.97861 12.4936 3.69519 11.8194 3.69519 11.1165V5.81538C3.69519 5.11241 3.97861 4.43823 4.48311 3.94116ZM16.249 5.81538C16.249 5.58106 16.1546 5.35633 15.9864 5.19064C15.8182 5.02495 15.5902 4.93186 15.3523 4.93186H6.3853C6.14748 4.93186 5.9194 5.02495 5.75124 5.19064C5.58307 5.35633 5.4886 5.58106 5.4886 5.81538V11.1165C5.4886 11.3508 5.58307 11.5755 5.75124 11.7412C5.9194 11.9069 6.14748 12 6.3853 12H8.17871C8.67394 12 9.07541 12.3955 9.07541 12.8835V14.2846L11.1315 12.2588C11.2996 12.0931 11.5277 12 11.7655 12H15.3523C15.5902 12 15.8182 11.9069 15.9864 11.7412C16.1546 11.5755 16.249 11.3508 16.249 11.1165V5.81538ZM10.3435 15.534H13.5589C13.7967 15.534 14.0248 15.6271 14.193 15.7928L16.249 17.8186V16.4176C16.249 15.9296 16.6505 15.534 17.1457 15.534H18.9391C19.177 15.534 19.405 15.441 19.5732 15.2753C19.7414 15.1096 19.8359 14.8849 19.8359 14.6505V9.34944C19.8359 9.11512 19.7414 8.89039 19.5732 8.7247C19.405 8.55901 19.177 8.46592 18.9391 8.46592H18.0424V11.1165C18.0424 11.8194 17.759 12.4936 17.2545 12.9907C16.75 13.4878 16.0658 13.767 15.3523 13.767H12.1369L10.3435 15.534Z" fill="black"/>
</svg>
