<svg width="25" height="24" viewBox="0 0 25 24" fill="none" xmlns="http://www.w3.org/2000/svg">
<path d="M22.7168 11.8359L13.6606 2.78438L13.0536 2.17735C12.9153 2.03995 12.7282 1.96283 12.5332 1.96283C12.3383 1.96283 12.1512 2.03995 12.0129 2.17735L2.34966 11.8359C2.20793 11.9771 2.09593 12.1452 2.02025 12.3304C1.94457 12.5156 1.90675 12.714 1.90903 12.9141C1.91841 13.7391 2.60513 14.3977 3.43013 14.3977H4.42622V22.0312H20.6403V14.3977H21.6575C22.0582 14.3977 22.4356 14.2406 22.7192 13.957C22.8588 13.8178 22.9695 13.6523 23.0447 13.4701C23.1199 13.2878 23.1583 13.0925 23.1575 12.8953C23.1575 12.4969 23.0004 12.1195 22.7168 11.8359V11.8359ZM13.8457 20.3437H11.2207V15.5625H13.8457V20.3437ZM18.9528 12.7102V20.3437H15.3457V15C15.3457 14.482 14.9262 14.0625 14.4082 14.0625H10.6582C10.1403 14.0625 9.72075 14.482 9.72075 15V20.3437H6.11372V12.7102H3.86372L12.5356 4.04531L13.077 4.58672L21.2051 12.7102H18.9528Z" fill="#868686"/>
</svg>
