<svg width="24" height="24" viewBox="0 0 24 24" fill="none" xmlns="http://www.w3.org/2000/svg">
<path d="M4.65625 6.27273C4.65625 5.21837 5.47461 4.36364 6.4841 4.36364C7.4936 4.36364 8.31196 5.21837 8.31196 6.27273V17.7273C8.31196 18.7816 7.4936 19.6364 6.4841 19.6364C5.47461 19.6364 4.65625 18.7816 4.65625 17.7273V6.27273Z" fill="#09C006"/>
<path d="M10.1398 6.27273C10.1398 5.21837 10.9582 4.36364 11.9677 4.36364C12.9772 4.36364 13.7955 5.21837 13.7955 6.27273V17.7273C13.7955 18.7816 12.9772 19.6364 11.9677 19.6364C10.9582 19.6364 10.1398 18.7816 10.1398 17.7273V6.27273Z" fill="#09C006"/>
<path d="M15.6234 6.27273C15.6234 5.21837 16.4417 4.36364 17.4512 4.36364C18.4607 4.36364 19.2791 5.21837 19.2791 6.27273V17.7273C19.2791 18.7816 18.4607 19.6364 17.4512 19.6364C16.4417 19.6364 15.6234 18.7816 15.6234 17.7273V6.27273Z" fill="#09C006"/>
</svg>
