<svg width="25" height="24" viewBox="0 0 25 24" fill="none" xmlns="http://www.w3.org/2000/svg">
<path fill-rule="evenodd" clip-rule="evenodd" d="M13.0221 4.62859C13.2377 4.84656 13.2377 5.19995 13.0221 5.41792L7.0406 11.4651H19.4176C19.7225 11.4651 19.9697 11.715 19.9697 12.0233C19.9697 12.3315 19.7225 12.5814 19.4176 12.5814H7.0406L13.0221 18.6286C13.2377 18.8466 13.2377 19.2 13.0221 19.4179C12.8065 19.6359 12.4569 19.6359 12.2413 19.4179L5.3174 12.4179C5.1018 12.2 5.1018 11.8466 5.3174 11.6286L12.2413 4.62859C12.4569 4.41062 12.8065 4.41062 13.0221 4.62859Z" fill="black"/>
<path fill-rule="evenodd" clip-rule="evenodd" d="M11.8858 4.27697C12.2971 3.86116 12.9662 3.86116 13.3775 4.27697C13.7858 4.68975 13.7858 5.35676 13.3775 5.76953L8.23844 10.9651H19.4176C20.0038 10.9651 20.4697 11.444 20.4697 12.0233C20.4697 12.6025 20.0038 13.0814 19.4176 13.0814H8.23844L13.3775 18.277C13.7858 18.6898 13.7858 19.3568 13.3775 19.7695C12.9662 20.1853 12.2971 20.1853 11.8858 19.7695L4.96192 12.7695C4.55363 12.3568 4.55363 11.6898 4.96192 11.277L11.8858 4.27697ZM12.6666 4.98021C12.6467 4.96008 12.6167 4.96008 12.5968 4.98021L5.67288 11.9802C5.64997 12.0034 5.64997 12.0431 5.67288 12.0663L5.3174 12.4179L5.67288 12.0663L12.5968 19.0663C12.6167 19.0864 12.6467 19.0864 12.6666 19.0663C12.6895 19.0431 12.6895 19.0034 12.6666 18.9802L6.68512 12.933C6.54325 12.7896 6.50147 12.575 6.57918 12.3888C6.65689 12.2026 6.83886 12.0814 7.0406 12.0814H19.4176C19.4412 12.0814 19.4697 12.0605 19.4697 12.0233C19.4697 11.986 19.4412 11.9651 19.4176 11.9651H7.0406C6.83886 11.9651 6.65689 11.8439 6.57918 11.6577C6.50147 11.4716 6.54325 11.2569 6.68512 11.1135L12.6666 5.0663L13.0221 5.41792L12.6666 5.0663C12.6895 5.04315 12.6895 5.00336 12.6666 4.98021L13.0221 4.62859L12.6666 4.98021Z" fill="black"/>
</svg>
