<svg width="24" height="24" viewBox="0 0 24 24" fill="none" xmlns="http://www.w3.org/2000/svg">
<path fill-rule="evenodd" clip-rule="evenodd" d="M11.3642 4.62859C11.5798 4.41062 11.9293 4.41062 12.1449 4.62859L19.0688 11.6286C19.2844 11.8466 19.2844 12.2 19.0688 12.4179L12.1449 19.4179C11.9293 19.6359 11.5798 19.6359 11.3642 19.4179C11.1486 19.2 11.1486 18.8466 11.3642 18.6286L17.3456 12.5814H4.96864C4.66374 12.5814 4.41656 12.3315 4.41656 12.0233C4.41656 11.715 4.66374 11.4651 4.96864 11.4651H17.3456L11.3642 5.41792C11.1486 5.19995 11.1486 4.84656 11.3642 4.62859Z" fill="black"/>
<path fill-rule="evenodd" clip-rule="evenodd" d="M11.0087 4.27697C11.42 3.86116 12.0891 3.86116 12.5004 4.27697L19.4243 11.277C19.8326 11.6898 19.8326 12.3568 19.4243 12.7695L12.5004 19.7695C12.0891 20.1853 11.42 20.1853 11.0087 19.7695C10.6004 19.3568 10.6004 18.6898 11.0087 18.277L16.1478 13.0814H4.96864C4.38246 13.0814 3.91656 12.6025 3.91656 12.0233C3.91656 11.444 4.38246 10.9651 4.96864 10.9651H16.1478L11.0087 5.76953L11.3642 5.41792L11.0087 5.76953C10.6004 5.35676 10.6004 4.68975 11.0087 4.27697ZM11.7894 4.98021C11.7695 4.96008 11.7395 4.96008 11.7196 4.98021L11.3671 4.63151L11.7196 4.98021C11.6967 5.00336 11.6967 5.04315 11.7196 5.0663L11.3774 5.40481L11.7196 5.0663L17.7011 11.1135C17.843 11.2569 17.8847 11.4716 17.807 11.6577C17.7293 11.8439 17.5474 11.9651 17.3456 11.9651H4.96864C4.94502 11.9651 4.91656 11.986 4.91656 12.0233C4.91656 12.0605 4.94502 12.0814 4.96864 12.0814H17.3456C17.5474 12.0814 17.7293 12.2026 17.807 12.3888C17.8847 12.575 17.843 12.7896 17.7011 12.933L11.7196 18.9802C11.6967 19.0034 11.6967 19.0431 11.7196 19.0663C11.7395 19.0864 11.7695 19.0864 11.7894 19.0663L18.7133 12.0663C18.7362 12.0431 18.7362 12.0034 18.7133 11.9802L11.7894 4.98021Z" fill="black"/>
</svg>
