<svg width="120" height="46" viewBox="0 0 120 46" fill="none" xmlns="http://www.w3.org/2000/svg">
<path d="M17.3325 22.5306L13.6877 17.7134H13.0538V22.5306H10.2523V10.9239H13.0538V15.4295H13.5009L17.0891 10.9239H20.5925L16.127 16.4042L20.8245 22.5306H17.3325Z" fill="black"/>
<path d="M23.7172 22.5306H20.7063L24.6171 10.9239H28.3468L32.2576 22.5306H29.2466L26.5244 13.8483H26.4338L23.7172 22.5306ZM23.3154 17.9627H29.6089V20.0937H23.3154V17.9627Z" fill="black"/>
<path d="M42.8445 15.1291H40.0147C39.977 14.8382 39.8996 14.5756 39.7827 14.3413C39.6657 14.1071 39.511 13.9068 39.3186 13.7406C39.1261 13.5744 38.8979 13.4478 38.6337 13.3609C38.3734 13.2702 38.0848 13.2249 37.7678 13.2249C37.2056 13.2249 36.7208 13.3628 36.3133 13.6386C35.9096 13.9144 35.5983 14.313 35.3795 14.8344C35.1644 15.3558 35.0569 15.9867 35.0569 16.7273C35.0569 17.498 35.1663 18.1441 35.3851 18.6655C35.6077 19.1831 35.919 19.5742 36.319 19.8386C36.7227 20.0993 37.2 20.2297 37.7508 20.2297C38.0602 20.2297 38.3413 20.19 38.5941 20.1107C38.8507 20.0313 39.0752 19.9161 39.2676 19.765C39.4638 19.6101 39.6242 19.423 39.7487 19.2039C39.877 18.981 39.9656 18.7297 40.0147 18.4501L42.8445 18.4671C42.7955 18.981 42.6464 19.4873 42.3974 19.986C42.1521 20.4847 41.8145 20.94 41.3843 21.3518C40.9542 21.7599 40.4297 22.0848 39.8109 22.3266C39.1959 22.5684 38.4904 22.6893 37.6942 22.6893C36.6453 22.6893 35.7058 22.4588 34.8758 21.9979C34.0495 21.5332 33.3967 20.8569 32.9175 19.969C32.4383 19.0811 32.1988 18.0005 32.1988 16.7273C32.1988 15.4502 32.4421 14.3678 32.9288 13.4799C33.4156 12.592 34.074 11.9176 34.9041 11.4567C35.7341 10.9957 36.6642 10.7652 37.6942 10.7652C38.396 10.7652 39.045 10.8635 39.6412 11.0599C40.2373 11.2526 40.7618 11.536 41.2145 11.91C41.6673 12.2803 42.0352 12.7356 42.3182 13.2759C42.6011 13.8162 42.7766 14.4339 42.8445 15.1291Z" fill="black"/>
<path d="M50.8903 22.5306L47.2455 17.7134H46.6116V22.5306H43.8101V10.9239H46.6116V15.4295H47.0587L50.6469 10.9239H54.1502L49.6848 16.4042L54.3823 22.5306H50.8903Z" fill="black"/>
<path d="M57.275 22.5306H54.264L58.1748 10.9239H61.9045L65.8153 22.5306H62.8044L60.0821 13.8483H59.9916L57.275 22.5306ZM56.8731 17.9627H63.1666V20.0937H56.8731V17.9627Z" fill="black"/>
<path d="M65.9221 25.3246V20.343H66.7201C66.988 20.1617 67.2332 19.9085 67.4558 19.5836C67.6784 19.2549 67.869 18.794 68.0275 18.2008C68.1859 17.6038 68.2991 16.8161 68.367 15.8375L68.7292 10.9239H76.6584V20.343H77.9035V25.3189H75.2095V22.5306H68.6161V25.3246H65.9221ZM69.9347 20.343H73.9644V13.2022H71.2421L71.061 15.8375C71.012 16.5743 70.9327 17.2241 70.8233 17.7871C70.7139 18.35 70.5837 18.8412 70.4328 19.2606C70.2819 19.6762 70.1159 20.037 69.9347 20.343Z" fill="black"/>
<path d="M14.787 33.8813C14.787 34.4698 14.6769 34.9738 14.4567 35.3934C14.2383 35.8113 13.94 36.1313 13.5618 36.3535C13.1854 36.5758 12.7584 36.6869 12.2808 36.6869C11.8031 36.6869 11.3752 36.5758 10.997 36.3535C10.6206 36.1295 10.3223 35.8086 10.1021 35.3908C9.88373 34.9712 9.77454 34.468 9.77454 33.8813C9.77454 33.2927 9.88373 32.7896 10.1021 32.3718C10.3223 31.9521 10.6206 31.6312 10.997 31.409C11.3752 31.1867 11.8031 31.0756 12.2808 31.0756C12.7584 31.0756 13.1854 31.1867 13.5618 31.409C13.94 31.6312 14.2383 31.9521 14.4567 32.3718C14.6769 32.7896 14.787 33.2927 14.787 33.8813ZM13.7935 33.8813C13.7935 33.467 13.7287 33.1176 13.5991 32.8331C13.4713 32.5469 13.2937 32.3309 13.0664 32.1851C12.8392 32.0375 12.5773 31.9637 12.2808 31.9637C11.9842 31.9637 11.7223 32.0375 11.4951 32.1851C11.2678 32.3309 11.0893 32.5469 10.9597 32.8331C10.8319 33.1176 10.768 33.467 10.768 33.8813C10.768 34.2955 10.8319 34.6458 10.9597 34.932C11.0893 35.2165 11.2678 35.4326 11.4951 35.5801C11.7223 35.7259 11.9842 35.7988 12.2808 35.7988C12.5773 35.7988 12.8392 35.7259 13.0664 35.5801C13.2937 35.4326 13.4713 35.2165 13.5991 34.932C13.7287 34.6458 13.7935 34.2955 13.7935 33.8813Z" fill="#84888B"/>
<path d="M15.4211 36.6122V31.1503H16.4092V33.4625H18.9368V31.1503H19.9275V36.6122H18.9368V34.292H16.4092V36.6122H15.4211Z" fill="#84888B"/>
<path d="M20.348 36.6122V35.7908L20.5024 35.7828C20.712 35.7704 20.878 35.6948 21.0005 35.5561C21.1248 35.4174 21.2162 35.1943 21.2748 34.8867C21.3352 34.5791 21.3751 34.1666 21.3947 33.6492L21.4852 31.1503H25.0594V36.6122H24.0926V31.9637H22.4067L22.3215 33.9559C22.2967 34.5533 22.231 35.0485 22.1244 35.4414C22.0197 35.8344 21.8474 36.1277 21.6077 36.3215C21.3698 36.5153 21.0387 36.6122 20.6143 36.6122H20.348Z" fill="#84888B"/>
<path d="M26.5372 36.6122H25.4825L27.4028 31.1503H28.6226L30.5456 36.6122H29.4909L28.034 32.2704H27.9914L26.5372 36.6122ZM26.5718 34.4707H29.4483V35.2654H26.5718V34.4707Z" fill="#84888B"/>
<path d="M30.964 31.1503H31.9441V34.8734H31.9947L34.5595 31.1503H35.4464V36.6122H34.4583V32.8918H34.413L31.8402 36.6122H30.964V31.1503ZM33.7339 29.7421H34.4557C34.4557 30.0533 34.3429 30.3057 34.1174 30.4995C33.8937 30.6916 33.5901 30.7876 33.2065 30.7876C32.8266 30.7876 32.5238 30.6916 32.2983 30.4995C32.0746 30.3057 31.9637 30.0533 31.9654 29.7421H32.6819C32.6819 29.8701 32.7209 29.9848 32.7991 30.0862C32.879 30.1857 33.0148 30.2355 33.2065 30.2355C33.3948 30.2355 33.5288 30.1857 33.6087 30.0862C33.6904 29.9866 33.7321 29.8719 33.7339 29.7421Z" fill="#84888B"/>
<path d="M36.2231 36.6122V31.1503H37.2112V33.4625H39.7387V31.1503H40.7295V36.6122H39.7387V34.292H37.2112V36.6122H36.2231Z" fill="#84888B"/>
<path d="M43.9411 33.4839V34.2786H41.4855V33.4839H43.9411Z" fill="#84888B"/>
<path d="M47.9657 36.6122L46.1706 34.2253H45.6859V36.6122H44.6978V31.1503H45.6859V33.3959H45.9336L47.8725 31.1503H49.0897L46.935 33.6412L49.1829 36.6122H47.9657Z" fill="#84888B"/>
<path d="M50.2545 36.6122H49.1998L51.1201 31.1503H52.3399L54.2629 36.6122H53.2082L51.7513 32.2704H51.7087L50.2545 36.6122ZM50.2891 34.4707H53.1656V35.2654H50.2891V34.4707Z" fill="#84888B"/>
<path d="M59.0938 32.9932H58.0977C58.0693 32.8296 58.0169 32.6847 57.9406 32.5584C57.8642 32.4304 57.7692 32.322 57.6556 32.2331C57.542 32.1442 57.4123 32.0775 57.2667 32.033C57.1229 31.9868 56.9676 31.9637 56.8007 31.9637C56.5041 31.9637 56.2413 32.0384 56.0123 32.1877C55.7833 32.3353 55.6039 32.5522 55.4743 32.8385C55.3447 33.1229 55.2799 33.4705 55.2799 33.8813C55.2799 34.2991 55.3447 34.6511 55.4743 34.9374C55.6057 35.2219 55.785 35.437 56.0123 35.5828C56.2413 35.7268 56.5032 35.7988 56.798 35.7988C56.9613 35.7988 57.114 35.7775 57.2561 35.7348C57.3999 35.6904 57.5286 35.6255 57.6423 35.5401C57.7577 35.4548 57.8545 35.3499 57.9326 35.2254C58.0125 35.101 58.0675 34.9587 58.0977 34.7987L59.0938 34.804C59.0565 35.0636 58.9757 35.3072 58.8514 35.5348C58.7289 35.7624 58.5682 35.9633 58.3694 36.1375C58.1705 36.31 57.9379 36.4451 57.6716 36.5429C57.4052 36.6389 57.1096 36.6869 56.7847 36.6869C56.3053 36.6869 55.8774 36.5758 55.5009 36.3535C55.1245 36.1313 54.828 35.8104 54.6114 35.3908C54.3948 34.9712 54.2864 34.468 54.2864 33.8813C54.2864 33.2927 54.3956 32.7896 54.614 32.3718C54.8324 31.9521 55.1298 31.6312 55.5063 31.409C55.8827 31.1867 56.3088 31.0756 56.7847 31.0756C57.0883 31.0756 57.3706 31.1183 57.6316 31.2036C57.8926 31.289 58.1252 31.4143 58.3294 31.5797C58.5336 31.7432 58.7014 31.9441 58.8328 32.1824C58.966 32.4189 59.053 32.6891 59.0938 32.9932Z" fill="#84888B"/>
<path d="M64.3675 32.9932H63.3714C63.343 32.8296 63.2906 32.6847 63.2143 32.5584C63.138 32.4304 63.043 32.322 62.9293 32.2331C62.8157 32.1442 62.6861 32.0775 62.5405 32.033C62.3967 31.9868 62.2413 31.9637 62.0744 31.9637C61.7779 31.9637 61.5151 32.0384 61.286 32.1877C61.057 32.3353 60.8777 32.5522 60.748 32.8385C60.6184 33.1229 60.5536 33.4705 60.5536 33.8813C60.5536 34.2991 60.6184 34.6511 60.748 34.9374C60.8794 35.2219 61.0588 35.437 61.286 35.5828C61.5151 35.7268 61.777 35.7988 62.0717 35.7988C62.2351 35.7988 62.3878 35.7775 62.5298 35.7348C62.6736 35.6904 62.8024 35.6255 62.916 35.5401C63.0314 35.4548 63.1282 35.3499 63.2063 35.2254C63.2862 35.101 63.3413 34.9587 63.3714 34.7987L64.3675 34.804C64.3302 35.0636 64.2495 35.3072 64.1252 35.5348C64.0027 35.7624 63.842 35.9633 63.6431 36.1375C63.4442 36.31 63.2116 36.4451 62.9453 36.5429C62.679 36.6389 62.3833 36.6869 62.0584 36.6869C61.579 36.6869 61.1511 36.5758 60.7747 36.3535C60.3982 36.1313 60.1017 35.8104 59.8851 35.3908C59.6685 34.9712 59.5602 34.468 59.5602 33.8813C59.5602 33.2927 59.6694 32.7896 59.8878 32.3718C60.1062 31.9521 60.4036 31.6312 60.78 31.409C61.1564 31.1867 61.5826 31.0756 62.0584 31.0756C62.362 31.0756 62.6443 31.1183 62.9053 31.2036C63.1664 31.289 63.399 31.4143 63.6031 31.5797C63.8073 31.7432 63.9751 31.9441 64.1065 32.1824C64.2397 32.4189 64.3267 32.6891 64.3675 32.9932Z" fill="#84888B"/>
<path d="M65.6409 33.2599H67.0259C67.4431 33.2599 67.8009 33.3283 68.0992 33.4652C68.3993 33.6003 68.6292 33.7915 68.789 34.0386C68.9488 34.2858 69.0287 34.5765 69.0287 34.9107C69.0287 35.2468 68.9488 35.5428 68.789 35.7988C68.6292 36.0531 68.3993 36.2522 68.0992 36.3962C67.8009 36.5402 67.4431 36.6122 67.0259 36.6122H64.9831V31.1503H65.9738V35.8015H67.0259C67.246 35.8015 67.4325 35.7597 67.5852 35.6761C67.7379 35.5926 67.8533 35.4823 67.9314 35.3454C68.0113 35.2085 68.0512 35.0601 68.0512 34.9C68.0512 34.6689 67.9625 34.4724 67.7849 34.3106C67.6091 34.1471 67.3561 34.0653 67.0259 34.0653H65.6409V33.2599ZM70.4909 31.1503V36.6122H69.5001V31.1503H70.4909Z" fill="#84888B"/>
<path d="M77.275 31.1503V36.6122H76.2949V31.9717H73.9085V36.6122H72.9284V31.1503H77.275Z" fill="#84888B"/>
<path d="M83.0308 33.8813C83.0308 34.4698 82.9207 34.9738 82.7006 35.3934C82.4822 35.8113 82.1839 36.1313 81.8057 36.3535C81.4292 36.5758 81.0022 36.6869 80.5246 36.6869C80.047 36.6869 79.6191 36.5758 79.2409 36.3535C78.8644 36.1295 78.5661 35.8086 78.346 35.3908C78.1276 34.9712 78.0184 34.468 78.0184 33.8813C78.0184 33.2927 78.1276 32.7896 78.346 32.3718C78.5661 31.9521 78.8644 31.6312 79.2409 31.409C79.6191 31.1867 80.047 31.0756 80.5246 31.0756C81.0022 31.0756 81.4292 31.1867 81.8057 31.409C82.1839 31.6312 82.4822 31.9521 82.7006 32.3718C82.9207 32.7896 83.0308 33.2927 83.0308 33.8813ZM82.0374 33.8813C82.0374 33.467 81.9726 33.1176 81.843 32.8331C81.7151 32.5469 81.5376 32.3309 81.3103 32.1851C81.083 32.0375 80.8211 31.9637 80.5246 31.9637C80.2281 31.9637 79.9662 32.0375 79.7389 32.1851C79.5116 32.3309 79.3332 32.5469 79.2036 32.8331C79.0757 33.1176 79.0118 33.467 79.0118 33.8813C79.0118 34.2955 79.0757 34.6458 79.2036 34.932C79.3332 35.2165 79.5116 35.4326 79.7389 35.5801C79.9662 35.7259 80.2281 35.7988 80.5246 35.7988C80.8211 35.7988 81.083 35.7259 81.3103 35.5801C81.5376 35.4326 81.7151 35.2165 81.843 34.932C81.9726 34.6458 82.0374 34.2955 82.0374 33.8813Z" fill="#84888B"/>
<path d="M83.3108 37.9297V35.8041H83.6756C83.7981 35.7064 83.9127 35.5686 84.0192 35.3908C84.1257 35.213 84.2163 34.9694 84.2909 34.66C84.3654 34.3506 84.4169 33.9506 84.4453 33.4599L84.5892 31.1503H88.0755V35.8041H88.6827V37.9244H87.7346V36.6122H84.2589V37.9297H83.3108ZM84.8262 35.8041H87.1273V31.9797H85.4787L85.3935 33.4599C85.3704 33.8315 85.3331 34.164 85.2816 34.4573C85.2301 34.7507 85.1653 35.0094 85.0872 35.2334C85.0091 35.4557 84.9221 35.6459 84.8262 35.8041Z" fill="#84888B"/>
<path d="M92.5911 36.6869C92.236 36.6869 91.9182 36.6202 91.6376 36.4869C91.3571 36.3518 91.1343 36.1669 90.9691 35.9322C90.8058 35.6975 90.7188 35.429 90.7081 35.1267H91.6669C91.6847 35.3508 91.7815 35.5339 91.9572 35.6761C92.133 35.8166 92.3443 35.8868 92.5911 35.8868C92.7847 35.8868 92.9569 35.8424 93.1078 35.7535C93.2587 35.6646 93.3777 35.541 93.4647 35.3828C93.5517 35.2245 93.5943 35.0441 93.5925 34.8414C93.5943 34.6351 93.5508 34.452 93.462 34.292C93.3733 34.132 93.2516 34.0066 93.0972 33.9159C92.9427 33.8235 92.7651 33.7772 92.5645 33.7772C92.4011 33.7755 92.2405 33.8057 92.0824 33.8679C91.9244 33.9302 91.7992 34.0119 91.7069 34.1133L90.8147 33.9666L91.0996 31.1503H94.2637V31.977H91.9173L91.7602 33.4252H91.7921C91.8933 33.3061 92.0363 33.2074 92.2209 33.1292C92.4056 33.0492 92.608 33.0092 92.8282 33.0092C93.1584 33.0092 93.4532 33.0874 93.7124 33.2439C93.9716 33.3985 94.1758 33.6119 94.325 33.8839C94.4741 34.156 94.5487 34.4671 94.5487 34.8174C94.5487 35.1783 94.4652 35.5001 94.2983 35.7828C94.1332 36.0637 93.9033 36.2851 93.6085 36.4469C93.3156 36.6069 92.9764 36.6869 92.5911 36.6869Z" fill="#84888B"/>
<path d="M95.0424 35.5988V34.812L97.3568 31.1503H98.012V32.2704H97.6125L96.0544 34.7427V34.7854H99.2851V35.5988H95.0424ZM97.6445 36.6122V35.3588L97.6551 35.0067V31.1503H98.5873V36.6122H97.6445Z" fill="#84888B"/>
<path d="M101.951 31.7583H103.053C103.479 31.7583 103.858 31.8499 104.188 32.033C104.518 32.2162 104.777 32.474 104.966 32.8065C105.154 33.1372 105.248 33.5248 105.248 33.9693C105.248 34.4031 105.154 34.7827 104.966 35.1081C104.777 35.4334 104.518 35.6868 104.188 35.8682C103.858 36.0477 103.479 36.1375 103.053 36.1375H101.951C101.523 36.1375 101.143 36.0486 100.811 35.8708C100.481 35.6912 100.221 35.4388 100.033 35.1134C99.8449 34.788 99.7508 34.4075 99.7508 33.9719C99.7508 33.5274 99.8458 33.1398 100.036 32.8091C100.226 32.4767 100.486 32.2188 100.816 32.0357C101.148 31.8508 101.526 31.7583 101.951 31.7583ZM101.951 32.5958C101.691 32.5958 101.467 32.6491 101.277 32.7558C101.089 32.8607 100.943 33.0154 100.84 33.2198C100.737 33.4243 100.686 33.675 100.686 33.9719C100.686 34.2564 100.737 34.4973 100.84 34.6947C100.945 34.892 101.092 35.0423 101.282 35.1454C101.472 35.2485 101.695 35.3001 101.951 35.3001H103.056C103.313 35.3001 103.535 35.2485 103.722 35.1454C103.91 35.0405 104.055 34.8894 104.156 34.692C104.259 34.4929 104.31 34.252 104.31 33.9693C104.31 33.6759 104.259 33.427 104.156 33.2225C104.055 33.018 103.91 32.8625 103.722 32.7558C103.535 32.6491 103.313 32.5958 103.056 32.5958H101.951ZM102.979 31.0543V36.8363H102.028V31.0543H102.979Z" fill="#84888B"/>
<path d="M107.792 36.6869C107.409 36.6869 107.068 36.6211 106.77 36.4896C106.473 36.358 106.239 36.1749 106.067 35.9402C105.894 35.7055 105.803 35.4343 105.792 35.1267H106.794C106.803 35.2743 106.851 35.4032 106.94 35.5134C107.029 35.6219 107.147 35.7064 107.294 35.7668C107.442 35.8273 107.607 35.8575 107.79 35.8575C107.985 35.8575 108.158 35.8237 108.309 35.7561C108.46 35.6868 108.578 35.5908 108.663 35.4681C108.749 35.3454 108.79 35.2041 108.789 35.0441C108.79 34.8787 108.748 34.7329 108.661 34.6067C108.574 34.4804 108.448 34.3818 108.282 34.3106C108.119 34.2395 107.922 34.204 107.691 34.204H107.209V33.4412H107.691C107.881 33.4412 108.047 33.4083 108.189 33.3425C108.333 33.2767 108.446 33.1843 108.528 33.0652C108.609 32.9443 108.649 32.8047 108.647 32.6465C108.649 32.4918 108.615 32.3575 108.543 32.2437C108.474 32.1282 108.376 32.0384 108.248 31.9744C108.122 31.9104 107.974 31.8784 107.803 31.8784C107.636 31.8784 107.482 31.9086 107.34 31.969C107.198 32.0295 107.083 32.1157 106.996 32.2277C106.909 32.338 106.863 32.4695 106.858 32.6224H105.907C105.914 32.3166 106.002 32.0482 106.17 31.817C106.341 31.5841 106.568 31.4028 106.852 31.273C107.136 31.1414 107.455 31.0756 107.808 31.0756C108.172 31.0756 108.488 31.1441 108.757 31.281C109.026 31.4161 109.235 31.5983 109.382 31.8277C109.53 32.057 109.604 32.3104 109.604 32.5878C109.605 32.8954 109.515 33.1532 109.332 33.3612C109.151 33.5692 108.913 33.7052 108.618 33.7692V33.8119C109.002 33.8653 109.295 34.0075 109.5 34.2386C109.706 34.468 109.808 34.7534 109.806 35.0947C109.806 35.4005 109.719 35.6744 109.545 35.9162C109.373 36.1562 109.135 36.3447 108.831 36.4816C108.529 36.6185 108.183 36.6869 107.792 36.6869Z" fill="#84888B"/>
<path d="M85.9168 22.6893C85.0716 22.6893 84.3208 22.5363 83.6643 22.2302C83.0078 21.9242 82.489 21.5029 82.1079 20.9664C81.7306 20.4299 81.5344 19.8141 81.5193 19.1189H84.2359C84.2585 19.5458 84.4321 19.8896 84.7566 20.1503C85.0811 20.4073 85.4678 20.5357 85.9168 20.5357C86.2677 20.5357 86.579 20.4583 86.8507 20.3034C87.1223 20.1484 87.3355 19.9312 87.4902 19.6516C87.6449 19.3682 87.7203 19.0433 87.7166 18.6768C87.7203 18.3028 87.643 17.976 87.4845 17.6964C87.3298 17.4168 87.1148 17.1996 86.8393 17.0446C86.5677 16.886 86.2545 16.8066 85.8998 16.8066C85.564 16.8028 85.2452 16.8765 84.9434 17.0276C84.6453 17.1788 84.4189 17.3847 84.2642 17.6454L81.7909 17.1807L82.2947 10.9239H89.7314V13.1852H84.5981L84.3321 15.9225H84.4C84.5925 15.6014 84.9019 15.3369 85.3282 15.1291C85.7583 14.9175 86.247 14.8117 86.7941 14.8117C87.4883 14.8117 88.1071 14.9742 88.6504 15.2991C89.1975 15.6203 89.6276 16.0661 89.9408 16.6366C90.2577 17.2071 90.4162 17.8607 90.4162 18.5975C90.4162 19.3947 90.2276 20.1012 89.8503 20.7171C89.4767 21.3329 88.9523 21.8165 88.2769 22.1679C87.6053 22.5155 86.8186 22.6893 85.9168 22.6893Z" fill="#FFCD00"/>
<path d="M91.1752 20.6037V18.4161L95.9236 10.9239H97.8649V13.8936H96.7386L93.9598 18.3028V18.3935H100.836V20.6037H91.1752ZM96.7726 22.5306V19.935L96.8292 18.9772V10.9239H99.4496V22.5306H96.7726Z" fill="#FFCD00"/>
</svg>
