<svg width="38" height="18" viewBox="0 0 38 18" fill="none" xmlns="http://www.w3.org/2000/svg">
<path d="M10.8375 14.8381L7.31765 9.92485H6.70549V14.8381H4V3H6.70549V7.59538H7.13728L10.6025 3H13.9857L9.67334 8.58959L14.2098 14.8381H10.8375Z" fill="black"/>
<path d="M19.592 15C18.7758 15 18.0507 14.8439 17.4167 14.5318C16.7827 14.2197 16.2817 13.79 15.9136 13.2428C15.5493 12.6956 15.3598 12.0674 15.3452 11.3584H17.9687C17.9906 11.7938 18.1582 12.1445 18.4716 12.4104C18.7849 12.6724 19.1584 12.8035 19.592 12.8035C19.9309 12.8035 20.2315 12.7245 20.4939 12.5665C20.7562 12.4085 20.9621 12.1869 21.1115 11.9017C21.2609 11.6127 21.3337 11.2813 21.3301 10.9075C21.3337 10.526 21.259 10.1927 21.106 9.90751C20.9566 9.62235 20.7489 9.40077 20.4829 9.24277C20.2206 9.08093 19.9181 9 19.5756 9C19.2513 8.99615 18.9434 9.07129 18.6519 9.22543C18.3641 9.37958 18.1454 9.5896 17.9961 9.85549L15.6076 9.3815L16.094 3H23.2759V5.30636H18.3185L18.0616 8.09827H18.1272C18.3131 7.77071 18.6118 7.50096 19.0236 7.28902C19.439 7.07322 19.9108 6.96532 20.4392 6.96532C21.1096 6.96532 21.7072 7.13102 22.2319 7.46243C22.7603 7.78998 23.1757 8.2447 23.4781 8.82659C23.7842 9.40848 23.9372 10.0751 23.9372 10.8266C23.9372 11.6397 23.755 12.3603 23.3906 12.9884C23.0299 13.6166 22.5234 14.1098 21.8712 14.4682C21.2226 14.8227 20.4629 15 19.592 15Z" fill="#FFCD00"/>
<path d="M24.6702 12.8728V10.6416L29.2559 3H31.1306V6.0289H30.0429L27.3593 10.526V10.6185H34.0001V12.8728H24.6702ZM30.0757 14.8382V12.1908L30.1304 11.2139V3H32.661V14.8382H30.0757Z" fill="#FFCD00"/>
</svg>
