<svg width="25" height="24" viewBox="0 0 25 24" fill="none" xmlns="http://www.w3.org/2000/svg">
<path fill-rule="evenodd" clip-rule="evenodd" d="M7.75315 5.375H5.70703C4.60246 5.375 3.70703 6.27043 3.70703 7.375V19.875C3.70703 20.9796 4.60246 21.875 5.70703 21.875H19.207C20.3116 21.875 21.207 20.9796 21.207 19.875V7.375C21.207 6.27043 20.3116 5.375 19.207 5.375H17.1609C17.0071 4.15701 16.4782 3.17906 15.7138 2.47838C14.8104 1.65029 13.6232 1.25 12.457 1.25C11.2909 1.25 10.1036 1.65029 9.20024 2.47838C8.43587 3.17906 7.90691 4.15701 7.75315 5.375ZM9.26939 5.375H15.6447C15.5067 4.58531 15.152 3.99819 14.7002 3.58412C14.1036 3.03721 13.2909 2.75 12.457 2.75C11.6232 2.75 10.8104 3.03721 10.2138 3.58412C9.7621 3.99819 9.40732 4.58531 9.26939 5.375ZM6.20703 6.875C5.65475 6.875 5.20703 7.32271 5.20703 7.875V19.375C5.20703 19.9273 5.65475 20.375 6.20703 20.375H18.707C19.2593 20.375 19.707 19.9273 19.707 19.375V7.875C19.707 7.32271 19.2593 6.875 18.707 6.875H6.20703ZM15.957 10.125C16.2649 10.4021 16.2899 10.8763 16.0128 11.1842L12.1908 15.4309C11.8075 15.8567 11.1455 15.8741 10.7404 15.469L8.95703 13.6857C8.66414 13.3928 8.66414 12.9179 8.95703 12.625V12.625C9.24992 12.3321 9.7248 12.3321 10.0177 12.625L10.6831 13.2904C11.0882 13.6955 11.7502 13.6781 12.1335 13.2522L14.8978 10.1807C15.1749 9.87286 15.6491 9.8479 15.957 10.125V10.125Z" fill="black"/>
</svg>
