<svg width="25" height="24" viewBox="0 0 25 24" fill="none" xmlns="http://www.w3.org/2000/svg">
<path d="M18.2108 12.245L18.7203 11.058C18.9589 10.502 19.5301 10.198 20.0912 10.314L20.2105 10.345L20.8474 10.547C21.4803 10.747 21.9636 11.282 22.1203 11.954C22.4913 13.552 22.0455 15.497 20.7837 17.79C19.523 20.079 18.141 21.455 16.6387 21.919C16.352 22.0069 16.0476 22.0216 15.7536 21.9618C15.4596 21.902 15.1858 21.7696 14.9574 21.577L14.832 21.463L14.3488 20.983C14.1455 20.7759 14.0141 20.5103 13.9735 20.2244C13.933 19.9386 13.9855 19.6474 14.1233 19.393L14.1951 19.276L14.9251 18.216C15.2112 17.799 15.7035 17.602 16.1757 17.701L16.304 17.736L17.6507 18.18C18.1971 17.7677 18.6544 17.2512 18.9953 16.661C19.2901 16.1706 19.4941 15.6322 19.5979 15.071L19.6363 14.801L18.5151 13.749C18.334 13.5746 18.2053 13.354 18.1432 13.1116C18.0811 12.8693 18.088 12.6147 18.1633 12.376L18.2108 12.245L18.7203 11.058L18.2118 12.245H18.2108ZM19.9648 4C20.5681 4 21.1467 4.23705 21.5733 4.65901C21.9999 5.08097 22.2396 5.65326 22.2396 6.25L22.2406 10.229C21.9838 9.98916 21.6841 9.7986 21.357 9.667L21.1548 9.594L20.7231 9.457V6.25C20.7231 6.05109 20.6432 5.86032 20.501 5.71967C20.3588 5.57902 20.1659 5.5 19.9648 5.5H4.29957C4.09847 5.5 3.90561 5.57902 3.76341 5.71967C3.62121 5.86032 3.54132 6.05109 3.54132 6.25V17.755C3.54132 18.169 3.88102 18.505 4.29957 18.505L7.07878 18.504L7.07979 15.75C7.0798 15.3108 7.24677 14.8877 7.54755 14.5646C7.84833 14.2415 8.26092 14.0421 8.70343 14.006L8.84902 14H15.4154C15.8596 14 16.2875 14.1653 16.6141 14.463C16.9408 14.7608 17.1423 15.1691 17.1786 15.607L17.1846 15.75L17.1836 16.972L16.6235 16.787L16.4557 16.739C16.1979 16.6758 15.9307 16.6599 15.6671 16.692V15.75C15.6671 15.6938 15.6479 15.6393 15.6127 15.5952C15.5775 15.5511 15.5283 15.52 15.473 15.507L15.4154 15.5H8.84902C8.79207 15.5001 8.73683 15.5192 8.69224 15.5542C8.64765 15.5893 8.61633 15.6382 8.60335 15.693L8.59627 15.75L8.59526 18.504H13.5026L13.359 18.714L13.26 18.87C13.0578 19.222 12.9546 19.614 12.9496 20.004H4.29957C3.69645 20.004 3.11801 19.7671 2.69145 19.3453C2.26489 18.9236 2.02511 18.3516 2.02484 17.755V6.25C2.02484 5.65326 2.2645 5.08097 2.69109 4.65901C3.11769 4.23705 3.69627 4 4.29957 4H19.9648V4ZM12.1347 7C12.9391 7 13.7106 7.31607 14.2794 7.87868C14.8482 8.44129 15.1677 9.20435 15.1677 10C15.1677 10.7956 14.8482 11.5587 14.2794 12.1213C13.7106 12.6839 12.9391 13 12.1347 13C11.3303 13 10.5589 12.6839 9.9901 12.1213C9.42131 11.5587 9.10176 10.7956 9.10176 10C9.10176 9.20435 9.42131 8.44129 9.9901 7.87868C10.5589 7.31607 11.3303 7 12.1347 7V7ZM12.1347 8.5C11.7325 8.5 11.3468 8.65803 11.0624 8.93934C10.778 9.22064 10.6182 9.60217 10.6182 10C10.6182 10.3978 10.778 10.7794 11.0624 11.0607C11.3468 11.342 11.7325 11.5 12.1347 11.5C12.5369 11.5 12.9227 11.342 13.207 11.0607C13.4914 10.7794 13.6512 10.3978 13.6512 10C13.6512 9.60217 13.4914 9.22064 13.207 8.93934C12.9227 8.65803 12.5369 8.5 12.1347 8.5Z" fill="#202020"/>
</svg>
