<svg width="24" height="24" viewBox="0 0 24 24" fill="none" xmlns="http://www.w3.org/2000/svg">
<g clip-path="url(#clip0_6_13)">
<path d="M18.4819 23.6267C18.2602 23.626 18.0391 23.6015 17.8225 23.5533C13.6989 22.6909 9.89998 20.6689 6.86295 17.72C3.89072 14.7646 1.82932 11.0017 0.928165 6.88667C0.821907 6.37381 0.847987 5.84193 1.0039 5.34221C1.1598 4.84249 1.4403 4.39174 1.81838 4.03333L4.45606 1.46667C4.59079 1.33786 4.75086 1.23922 4.92585 1.17719C5.10083 1.11516 5.28678 1.09113 5.47157 1.10667C5.66317 1.12688 5.84807 1.18928 6.01326 1.28948C6.17845 1.38968 6.31993 1.52526 6.42773 1.68667L9.72483 6.61333C9.84847 6.80449 9.90816 7.03073 9.8951 7.25875C9.88204 7.48678 9.79693 7.70454 9.65229 7.88L7.99715 9.88C8.65634 11.355 9.58988 12.688 10.7469 13.8067C11.8965 14.9659 13.2553 15.8915 14.7496 16.5333L16.8004 14.8867C16.9727 14.749 17.1822 14.6677 17.4013 14.6534C17.6204 14.6391 17.8386 14.6926 18.0269 14.8067L23.0056 18.06C23.1764 18.1631 23.322 18.304 23.4313 18.4721C23.5407 18.6402 23.611 18.8311 23.637 19.0305C23.663 19.23 23.644 19.4328 23.5815 19.6238C23.519 19.8148 23.4145 19.989 23.2759 20.1333L20.7042 22.7067C20.412 23.0006 20.0653 23.2331 19.6839 23.391C19.3025 23.5489 18.894 23.629 18.4819 23.6267V23.6267ZM5.36606 2.42667L2.72838 4.99333C2.51569 5.1937 2.35824 5.44659 2.27153 5.72712C2.18481 6.00766 2.17182 6.30618 2.23382 6.59333C3.07176 10.4548 4.99792 13.9882 7.77954 16.7667C10.6376 19.541 14.2126 21.4429 18.0929 22.2533C18.3866 22.3154 18.6909 22.3028 18.9787 22.2167C19.2664 22.1306 19.5285 21.9737 19.7414 21.76L22.3132 19.1867L17.506 16.0467L15.3035 17.82C15.2192 17.8875 15.1199 17.9331 15.0141 17.9528C14.9084 17.9726 14.7995 17.9659 14.6969 17.9333C12.8681 17.2521 11.2108 16.1708 9.84353 14.7667C8.4293 13.4315 7.33155 11.7907 6.63215 9.96667C6.60256 9.85624 6.60158 9.73998 6.62929 9.62906C6.65701 9.51814 6.7125 9.4163 6.79041 9.33333L8.57084 7.18L5.36606 2.42667Z" fill="black"/>
</g>
<defs>
<clipPath id="clip0_6_13">
<rect width="23.7391" height="24" fill="white" transform="translate(0.196167)"/>
</clipPath>
</defs>
</svg>
