<svg width="25" height="24" viewBox="0 0 25 24" fill="none" xmlns="http://www.w3.org/2000/svg">
<g clip-path="url(#clip0_6_32)">
<path fill-rule="evenodd" clip-rule="evenodd" d="M12.6728 4.34272L9.86059 1.4238L8.86982 5.36113L5.00421 4.25632L6.097 8.16441L2.20248 9.16607L5.08967 12.0092L2.17112 14.8258L6.09706 15.8355L5.00447 19.7422L8.86996 18.6394L9.86022 22.5747L12.6728 19.6553L15.4592 22.6064L16.4574 18.6393L20.3215 19.742L19.2309 15.8354L23.1548 14.8262L20.2358 12.0092L23.1234 9.1657L19.2309 8.16456L20.3218 4.25659L16.4576 5.36118L15.4588 1.3921L12.6728 4.34272ZM15.8351 0.0383554C16.2245 0.143777 16.5259 0.453668 16.6233 0.848402L17.3605 3.77809L20.2352 2.95637C20.6246 2.84575 21.0419 2.95543 21.3248 3.24325C21.5705 3.53153 21.7189 3.95293 21.6076 4.34481L20.7962 7.25153L23.694 7.99684C24.0835 8.09528 24.3895 8.39996 24.4962 8.79371C24.5982 9.18746 24.4451 9.56715 24.1948 9.89059L22.0527 12L24.1948 14.0671C24.4451 14.3906 24.5982 14.7703 24.4962 15.2062C24.3895 15.6 24.0835 15.9046 23.694 16.0031L20.7962 16.7484L21.6076 19.6546C21.7189 20.0484 21.5705 20.4703 21.3248 20.7562C21.0419 21.0046 20.6246 21.1546 20.2352 21.0421L17.3605 20.2218L16.6233 23.1515C16.5259 23.5453 16.2245 23.8546 15.8351 23.9625C15.4039 24.0656 15.0283 23.9109 14.7084 23.6578L12.6637 21.4921L10.5772 23.6578C10.2573 23.9109 9.88175 24.0656 9.49228 23.9625C9.10281 23.8546 8.80143 23.5453 8.70407 23.1515L7.96686 20.2218L5.09173 21.0421C4.70412 21.1546 4.28729 21.0046 4.00214 20.7562C3.71746 20.4703 3.60896 20.0484 3.71839 19.6546L4.53117 16.7484L1.63333 16.0031C1.44155 15.9547 1.26608 15.8553 1.12517 15.7152C0.984267 15.575 0.883065 15.3993 0.832088 15.2062C0.727766 14.7703 0.842057 14.3906 1.13077 14.0671L3.27281 12L1.13077 9.89059C0.842057 9.56715 0.727766 9.18746 0.832088 8.79371C0.936364 8.39996 1.24289 8.09528 1.63333 7.99684L4.53117 7.25153L3.71839 4.34481C3.66465 4.15226 3.66262 3.94872 3.71249 3.75512C3.76236 3.56151 3.86234 3.38483 4.00214 3.24325C4.14219 3.1019 4.31695 3.00083 4.50845 2.95041C4.69995 2.89999 4.90128 2.90205 5.09173 2.95637L7.96686 3.77809L8.70407 0.848402C8.7519 0.654506 8.85024 0.477103 8.98886 0.33464C9.12747 0.192177 9.3013 0.0898533 9.49228 0.0383085C9.88175 -0.0671133 10.2573 0.0484335 10.5772 0.340324L12.6637 2.5059L14.7084 0.340324C15.0283 0.0484335 15.4039 -0.0671133 15.8351 0.0383554ZM9.69756 1.25974C9.6971 1.25947 9.69756 1.25973 9.69756 1.25974Z" fill="#202020"/>
<path d="M8.95437 9.6123C8.95437 9.00392 9.08599 8.52399 9.34923 8.17248C9.61584 7.82098 10.0191 7.64522 10.5591 7.64522C11.0991 7.64522 11.5007 7.82098 11.7639 8.17248C12.0305 8.52399 12.1638 9.00392 12.1638 9.6123C12.1638 10.2207 12.0305 10.7006 11.7639 11.0521C11.5007 11.4036 11.0991 11.5794 10.5591 11.5794C10.0191 11.5794 9.61584 11.4036 9.34923 11.0521C9.08599 10.7006 8.95437 10.2207 8.95437 9.6123ZM9.97694 9.6123C9.97694 10.1193 10.0276 10.4606 10.1288 10.6364C10.2301 10.8088 10.3735 10.8949 10.5591 10.8949C10.7447 10.8949 10.8881 10.8088 10.9894 10.6364C11.0906 10.4606 11.1413 10.1193 11.1413 9.6123C11.1413 9.10532 11.0906 8.76564 10.9894 8.59327C10.8881 8.41752 10.7447 8.32964 10.5591 8.32964C10.3735 8.32964 10.2301 8.41752 10.1288 8.59327C10.0276 8.76564 9.97694 9.10532 9.97694 9.6123ZM10.0984 15.4476C9.96007 15.3496 9.94826 15.2178 10.063 15.0522L15.2315 7.66043C15.3497 7.49144 15.4779 7.45595 15.6163 7.55397L15.9706 7.80239C16.109 7.9004 16.1208 8.03222 16.0061 8.19783L10.8375 15.5896C10.7194 15.7586 10.5912 15.794 10.4528 15.696L10.0984 15.4476ZM13.9052 13.6377C13.9052 13.0293 14.0369 12.5494 14.3001 12.1979C14.5667 11.8464 14.97 11.6706 15.51 11.6706C16.0499 11.6706 16.4515 11.8464 16.7148 12.1979C16.9814 12.5494 17.1147 13.0293 17.1147 13.6377C17.1147 14.2461 16.9814 14.726 16.7148 15.0775C16.4515 15.429 16.0499 15.6048 15.51 15.6048C14.97 15.6048 14.5667 15.429 14.3001 15.0775C14.0369 14.726 13.9052 14.2461 13.9052 13.6377ZM14.9278 13.6377C14.9278 14.1447 14.9784 14.486 15.0797 14.6618C15.1809 14.8342 15.3244 14.9204 15.51 14.9204C15.6956 14.9204 15.839 14.8342 15.9403 14.6618C16.0415 14.486 16.0921 14.1447 16.0921 13.6377C16.0921 13.1307 16.0415 12.791 15.9403 12.6187C15.839 12.4429 15.6956 12.355 15.51 12.355C15.3244 12.355 15.1809 12.4429 15.0797 12.6187C14.9784 12.791 14.9278 13.1307 14.9278 13.6377Z" fill="#202020"/>
</g>
<defs>
<clipPath id="clip0_6_32">
<rect width="23.7391" height="24" fill="white" transform="translate(0.794067)"/>
</clipPath>
</defs>
</svg>
