<svg width="25" height="24" viewBox="0 0 25 24" fill="none" xmlns="http://www.w3.org/2000/svg">
<path fill-rule="evenodd" clip-rule="evenodd" d="M16.6046 14.899L21.9261 20.279C22.1132 20.4682 22.2182 20.7248 22.2181 20.9924C22.218 21.2599 22.1128 21.5164 21.9256 21.7055C21.7384 21.8946 21.4846 22.0008 21.22 22.0007C20.9554 22.0006 20.7017 21.8942 20.5146 21.705L15.1931 16.325C13.6023 17.5707 11.6019 18.1569 9.59871 17.9643C7.59557 17.7718 5.74022 16.815 4.41009 15.2886C3.07995 13.7622 2.37496 11.7808 2.43852 9.74755C2.50209 7.71428 3.32943 5.78186 4.75225 4.3434C6.17507 2.90495 8.08648 2.06851 10.0976 2.00425C12.1088 1.93999 14.0687 2.65273 15.5785 3.99748C17.0883 5.34223 18.0347 7.21798 18.2251 9.24313C18.4156 11.2683 17.8357 13.2907 16.6036 14.899H16.6046ZM10.3483 16C11.9224 16 13.4319 15.3679 14.5449 14.2426C15.6579 13.1174 16.2831 11.5913 16.2831 10C16.2831 8.4087 15.6579 6.88258 14.5449 5.75736C13.4319 4.63214 11.9224 4 10.3483 4C8.77435 4 7.26481 4.63214 6.15182 5.75736C5.03884 6.88258 4.41357 8.4087 4.41357 10C4.41357 11.5913 5.03884 13.1174 6.15182 14.2426C7.26481 15.3679 8.77435 16 10.3483 16V16Z" fill="black"/>
</svg>
