<svg width="26" height="24" viewBox="0 0 26 24" fill="none" xmlns="http://www.w3.org/2000/svg">
<path fill-rule="evenodd" clip-rule="evenodd" d="M4.70197 9.82619C4.81666 8.39037 6.0136 7.28372 7.45188 7.28372H18.9406C20.3788 7.28372 21.5758 8.39037 21.6905 9.82619L22.4484 19.3146C22.5768 20.9221 21.3088 22.2977 19.6985 22.2977H6.69393C5.08361 22.2977 3.81561 20.9221 3.94402 19.3146L4.70197 9.82619ZM7.45188 8.34419C6.56567 8.34419 5.82816 9.02606 5.75749 9.91076L4.99954 19.3991C4.92042 20.3897 5.70171 21.2372 6.69393 21.2372H19.6985C20.6907 21.2372 21.472 20.3897 21.3929 19.3991L20.6349 9.91076C20.5643 9.02606 19.8268 8.34419 18.9406 8.34419H7.45188Z" fill="black"/>
<path fill-rule="evenodd" clip-rule="evenodd" d="M9.91683 2.7724C10.7887 1.91905 11.9686 1.44186 13.1963 1.44186C14.4239 1.44186 15.6038 1.91905 16.4757 2.7724C17.348 3.62618 17.8405 4.78691 17.8405 6V11C17.8405 11.3083 17.591 11.5581 17.2832 11.5581C16.9754 11.5581 16.7259 11.3083 16.7259 11V6C16.7259 5.09136 16.3572 4.21726 15.6967 3.57075C15.0357 2.92381 14.1365 2.55814 13.1963 2.55814C12.2561 2.55814 11.3569 2.92381 10.6959 3.57075C10.0353 4.21726 9.66663 5.09136 9.66663 6V11C9.66663 11.3083 9.41711 11.5581 9.10931 11.5581C8.80152 11.5581 8.552 11.3083 8.552 11V6C8.552 4.78691 9.0445 3.62618 9.91683 2.7724Z" fill="black"/>
</svg>
