<svg width="25" height="24" viewBox="0 0 25 24" fill="none" xmlns="http://www.w3.org/2000/svg">
<path d="M18.2879 4H5.97873C5.01158 4 4.22028 4.8 4.22028 5.77778V18.2222C4.22028 19.2009 5.01158 20 5.97873 20H18.2879C19.2551 20 20.0464 19.2009 20.0464 18.2222V5.77778C20.0464 4.8 19.2551 4 18.2879 4ZM12.1192 16.9093C13.4107 16.9091 14.6492 16.3903 15.5623 15.4669C16.4754 14.5436 16.9884 13.2914 16.9884 11.9858C16.9884 11.6853 16.9506 11.3956 16.8978 11.1111H18.2879V17.5253C18.2879 17.6061 18.2721 17.6861 18.2415 17.7607C18.2108 17.8352 18.1659 17.903 18.1093 17.96C18.0527 18.017 17.9855 18.0621 17.9116 18.0927C17.8377 18.1234 17.7585 18.139 17.6786 18.1387H6.58803C6.50814 18.139 6.42897 18.1234 6.35506 18.0927C6.28115 18.0621 6.21396 18.017 6.15735 17.96C6.10074 17.903 6.05581 17.8352 6.02516 17.7607C5.99451 17.6861 5.97873 17.6061 5.97873 17.5253V11.1111H7.34065C7.28702 11.3956 7.24921 11.6853 7.24921 11.9858C7.24945 13.2915 7.76261 14.5437 8.67587 15.467C9.58913 16.3903 10.8277 16.9091 12.1192 16.9093ZM9.07625 11.9858C9.07625 11.5818 9.15495 11.1817 9.30788 10.8085C9.46081 10.4352 9.68495 10.0961 9.96752 9.8104C10.2501 9.52473 10.5855 9.29812 10.9547 9.14351C11.3239 8.98891 11.7196 8.90933 12.1192 8.90933C12.5189 8.90933 12.9146 8.98891 13.2838 9.14351C13.653 9.29812 13.9884 9.52473 14.271 9.8104C14.5535 10.0961 14.7777 10.4352 14.9306 10.8085C15.0835 11.1817 15.1623 11.5818 15.1623 11.9858C15.1623 12.8017 14.8417 13.5842 14.271 14.1611C13.7003 14.7381 12.9263 15.0622 12.1192 15.0622C11.3122 15.0622 10.5382 14.7381 9.96752 14.1611C9.39685 13.5842 9.07625 12.8017 9.07625 11.9858ZM17.6786 8.44444H16.2586C16.0974 8.44397 15.9429 8.37902 15.8289 8.26376C15.7149 8.14851 15.6507 7.99233 15.6502 7.82933V6.392C15.6502 6.05244 15.9228 5.77778 16.2578 5.77778H17.6777C18.0153 5.77778 18.2879 6.05244 18.2879 6.392V7.82844C18.2879 8.16711 18.0153 8.44444 17.6786 8.44444Z" fill="white"/>
</svg>
