<svg width="25" height="24" viewBox="0 0 25 24" fill="none" xmlns="http://www.w3.org/2000/svg">
<path d="M21.5819 6.855C21.7219 6.39 21.5819 6.049 20.9199 6.049H18.7269C18.1689 6.049 17.9139 6.344 17.7739 6.668C17.7739 6.668 16.6589 9.387 15.0789 11.15C14.5689 11.663 14.3359 11.825 14.0579 11.825C13.9189 11.825 13.7169 11.663 13.7169 11.198V6.855C13.7169 6.297 13.5559 6.049 13.0909 6.049H9.64487C9.29687 6.049 9.08687 6.307 9.08687 6.553C9.08687 7.081 9.87687 7.203 9.95787 8.691V11.919C9.95787 12.626 9.83087 12.755 9.55087 12.755C8.80787 12.755 6.99987 10.026 5.92687 6.902C5.71787 6.295 5.50687 6.05 4.94687 6.05H2.75487C2.12787 6.05 2.00287 6.345 2.00287 6.669C2.00287 7.251 2.74587 10.131 5.46387 13.94C7.27587 16.541 9.82687 17.951 12.1509 17.951C13.5439 17.951 13.7159 17.638 13.7159 17.098V15.132C13.7159 14.506 13.8489 14.38 14.2899 14.38C14.6139 14.38 15.1719 14.544 16.4729 15.797C17.9589 17.283 18.2049 17.95 19.0399 17.95H21.2319C21.8579 17.95 22.1709 17.637 21.9909 17.019C21.7939 16.404 21.0839 15.509 20.1419 14.45C19.6299 13.846 18.8649 13.196 18.6319 12.871C18.3069 12.452 18.4009 12.267 18.6319 11.895C18.6329 11.896 21.3039 8.134 21.5819 6.855V6.855Z" fill="white"/>
</svg>
